0
SECTION
2
HEADER
9
$INSUNITS
70
4
0
ENDSEC
0
SECTION
2
TABLES
0
TABLE
2
LTYPE
0
LTYPE
72
65
70
64
2
CONTINUOUS
3
______
73
0
40
0
0
ENDTAB
0
TABLE
2
LAYER
0
ENDTAB
0
ENDSEC
0
SECTION
2
ENTITIES
0
LINE
8
0
10
-10.2751368
20
62.7395643
11
41.8630883
21
69.9809845
0
LINE
8
0
10
-12
20
60.7585798
11
-12
21
-9.5
0
LINE
8
0
10
-10
20
-11.5
11
54.6397877
21
-11.5
0
LINE
8
0
10
56.6235873
20
-13.2459542
11
58.1343534
21
-25.0432648
0
LINE
8
0
10
58.3861022
20
-25.789219
11
104.3692434
21
-105.4343559
0
LINE
8
0
10
105.417254
20
-106.3137411
11
124.4419462
21
-113.2381628
0
LINE
8
0
10
127.0141814
20
-112.0181102
11
134.7784631
21
-89.7827833
0
LINE
8
0
10
134.890096
20
-89.0972201
11
134.555051
21
-63.5533633
0
LINE
8
0
10
134.5552465
20
-63.4887923
11
135.5996325
21
-9.0191668
0
LINE
8
0
10
135.6
20
-8.9808264
11
135.6
21
65.5
0
LINE
8
0
10
133.6
20
67.5
11
84.1382251
21
67.5
0
LINE
8
0
10
83.8630883
20
67.5190155
11
66.1369117
21
69.9809845
0
LINE
8
0
10
65.8617749
20
70
11
42.1382251
21
70
0
ARC
8
0
10
-10
20
60.7585798
40
2
50
97.9071641
51
180
0
ARC
8
0
10
-10
20
-9.5
40
2
50
180
51
270
0
ARC
8
0
10
54.6397877
20
-13.5
40
2
50
7.2975906
51
90
0
ARC
8
0
10
60.118153
20
-24.789219
40
2
50
187.2975906
51
210.0000001
0
ARC
8
0
10
106.1012942
20
-104.4343559
40
2
50
210.0000001
51
250.0000019
0
ARC
8
0
10
125.1259864
20
-111.3587776
40
2
50
250.0000019
51
340.7514771
0
ARC
8
0
10
132.890268
20
-89.1234507
40
2
50
340.7514771
51
0.7514729
0
ARC
8
0
10
136.554879
20
-63.5271327
40
2
50
178.9015611
51
180.7514729
0
ARC
8
0
10
133.6
20
-8.9808264
40
2
50
358.9015611
51
0
0
ARC
8
0
10
133.6
20
65.5
40
2
50
0
51
90
0
ARC
8
0
10
84.1382251
20
69.5
40
2
50
262.0928359
51
270
0
ARC
8
0
10
65.8617749
20
68
40
2
50
82.0928359
51
90
0
ARC
8
0
10
42.1382251
20
68
40
2
50
90
51
97.9071641
0
LINE
8
0
10
282.1369117
20
69.9809845
11
334.2751368
21
62.7395643
0
LINE
8
0
10
336
20
60.7585798
11
336
21
-9.5
0
LINE
8
0
10
334
20
-11.5
11
269.3602123
21
-11.5
0
LINE
8
0
10
267.3764127
20
-13.2459542
11
265.8656466
21
-25.0432648
0
LINE
8
0
10
265.6138978
20
-25.789219
11
219.6307566
21
-105.4343559
0
LINE
8
0
10
218.582746
20
-106.3137411
11
199.5580538
21
-113.2381628
0
LINE
8
0
10
196.9858186
20
-112.0181102
11
189.2215369
21
-89.7827833
0
LINE
8
0
10
189.109904
20
-89.0972201
11
189.444949
21
-63.5533633
0
LINE
8
0
10
189.4447535
20
-63.4887923
11
188.4003675
21
-9.0191668
0
LINE
8
0
10
188.4
20
-8.9808264
11
188.4
21
65.5
0
LINE
8
0
10
190.4
20
67.5
11
239.8617749
21
67.5
0
LINE
8
0
10
240.1369117
20
67.5190155
11
257.8630883
21
69.9809845
0
LINE
8
0
10
258.1382251
20
70
11
281.8617749
21
70
0
ARC
8
0
10
334
20
60.7585798
40
2
50
0
51
82.0928359
0
ARC
8
0
10
334
20
-9.5
40
2
50
270
51
0
0
ARC
8
0
10
269.3602123
20
-13.5
40
2
50
90
51
172.7024094
0
ARC
8
0
10
263.881847
20
-24.789219
40
2
50
329.9999999
51
352.7024094
0
ARC
8
0
10
217.8987058
20
-104.4343559
40
2
50
289.9999981
51
329.9999999
0
ARC
8
0
10
198.8740136
20
-111.3587776
40
2
50
199.2485229
51
289.9999981
0
ARC
8
0
10
191.109732
20
-89.1234507
40
2
50
179.2485271
51
199.2485229
0
ARC
8
0
10
187.445121
20
-63.5271327
40
2
50
359.2485271
51
1.0984389
0
ARC
8
0
10
190.4
20
-8.9808264
40
2
50
180
51
181.0984389
0
ARC
8
0
10
190.4
20
65.5
40
2
50
90
51
180
0
ARC
8
0
10
239.8617749
20
69.5
40
2
50
270
51
277.9071641
0
ARC
8
0
10
258.1382251
20
68
40
2
50
90
51
97.9071641
0
ARC
8
0
10
281.8617749
20
68
40
2
50
82.0928359
51
90
0
ENDSEC
0
EOF