0
SECTION
2
HEADER
9
$INSUNITS
70
4
0
ENDSEC
0
SECTION
2
TABLES
0
TABLE
2
LTYPE
0
LTYPE
72
65
70
64
2
CONTINUOUS
3
______
73
0
40
0
0
ENDTAB
0
TABLE
2
LAYER
0
ENDTAB
0
ENDSEC
0
SECTION
2
ENTITIES
0
LINE
8
0
10
-8.75
20
-8.25
11
8.75
21
-8.25
0
LINE
8
0
10
8.75
20
-8.25
11
8.75
21
8.25
0
LINE
8
0
10
8.75
20
8.25
11
-8.75
21
8.25
0
LINE
8
0
10
-8.75
20
8.25
11
-8.75
21
-8.25
0
LINE
8
0
10
-8.75
20
8.75
11
8.75
21
8.75
0
LINE
8
0
10
8.75
20
8.75
11
8.75
21
25.25
0
LINE
8
0
10
8.75
20
25.25
11
-8.75
21
25.25
0
LINE
8
0
10
-8.75
20
25.25
11
-8.75
21
8.75
0
LINE
8
0
10
-8.75
20
25.75
11
8.75
21
25.75
0
LINE
8
0
10
8.75
20
25.75
11
8.75
21
42.25
0
LINE
8
0
10
8.75
20
42.25
11
-8.75
21
42.25
0
LINE
8
0
10
-8.75
20
42.25
11
-8.75
21
25.75
0
LINE
8
0
10
-8.75
20
42.75
11
8.75
21
42.75
0
LINE
8
0
10
8.75
20
42.75
11
8.75
21
59.25
0
LINE
8
0
10
8.75
20
59.25
11
-8.75
21
59.25
0
LINE
8
0
10
-8.75
20
59.25
11
-8.75
21
42.75
0
LINE
8
0
10
9.25
20
-8.25
11
26.75
21
-8.25
0
LINE
8
0
10
26.75
20
-8.25
11
26.75
21
8.25
0
LINE
8
0
10
26.75
20
8.25
11
9.25
21
8.25
0
LINE
8
0
10
9.25
20
8.25
11
9.25
21
-8.25
0
LINE
8
0
10
9.25
20
8.75
11
26.75
21
8.75
0
LINE
8
0
10
26.75
20
8.75
11
26.75
21
25.25
0
LINE
8
0
10
26.75
20
25.25
11
9.25
21
25.25
0
LINE
8
0
10
9.25
20
25.25
11
9.25
21
8.75
0
LINE
8
0
10
9.25
20
25.75
11
26.75
21
25.75
0
LINE
8
0
10
26.75
20
25.75
11
26.75
21
42.25
0
LINE
8
0
10
26.75
20
42.25
11
9.25
21
42.25
0
LINE
8
0
10
9.25
20
42.25
11
9.25
21
25.75
0
LINE
8
0
10
9.25
20
42.75
11
26.75
21
42.75
0
LINE
8
0
10
26.75
20
42.75
11
26.75
21
59.25
0
LINE
8
0
10
26.75
20
59.25
11
9.25
21
59.25
0
LINE
8
0
10
9.25
20
59.25
11
9.25
21
42.75
0
LINE
8
0
10
27.25
20
-3.25
11
44.75
21
-3.25
0
LINE
8
0
10
44.75
20
-3.25
11
44.75
21
13.25
0
LINE
8
0
10
44.75
20
13.25
11
27.25
21
13.25
0
LINE
8
0
10
27.25
20
13.25
11
27.25
21
-3.25
0
LINE
8
0
10
27.25
20
13.75
11
44.75
21
13.75
0
LINE
8
0
10
44.75
20
13.75
11
44.75
21
30.25
0
LINE
8
0
10
44.75
20
30.25
11
27.25
21
30.25
0
LINE
8
0
10
27.25
20
30.25
11
27.25
21
13.75
0
LINE
8
0
10
27.25
20
30.75
11
44.75
21
30.75
0
LINE
8
0
10
44.75
20
30.75
11
44.75
21
47.25
0
LINE
8
0
10
44.75
20
47.25
11
27.25
21
47.25
0
LINE
8
0
10
27.25
20
47.25
11
27.25
21
30.75
0
LINE
8
0
10
27.25
20
47.75
11
44.75
21
47.75
0
LINE
8
0
10
44.75
20
47.75
11
44.75
21
64.25
0
LINE
8
0
10
44.75
20
64.25
11
27.25
21
64.25
0
LINE
8
0
10
27.25
20
64.25
11
27.25
21
47.75
0
LINE
8
0
10
45.25
20
-0.75
11
62.75
21
-0.75
0
LINE
8
0
10
62.75
20
-0.75
11
62.75
21
15.75
0
LINE
8
0
10
62.75
20
15.75
11
45.25
21
15.75
0
LINE
8
0
10
45.25
20
15.75
11
45.25
21
-0.75
0
LINE
8
0
10
45.25
20
16.25
11
62.75
21
16.25
0
LINE
8
0
10
62.75
20
16.25
11
62.75
21
32.75
0
LINE
8
0
10
62.75
20
32.75
11
45.25
21
32.75
0
LINE
8
0
10
45.25
20
32.75
11
45.25
21
16.25
0
LINE
8
0
10
45.25
20
33.25
11
62.75
21
33.25
0
LINE
8
0
10
62.75
20
33.25
11
62.75
21
49.75
0
LINE
8
0
10
62.75
20
49.75
11
45.25
21
49.75
0
LINE
8
0
10
45.25
20
49.75
11
45.25
21
33.25
0
LINE
8
0
10
45.25
20
50.25
11
62.75
21
50.25
0
LINE
8
0
10
62.75
20
50.25
11
62.75
21
66.75
0
LINE
8
0
10
62.75
20
66.75
11
45.25
21
66.75
0
LINE
8
0
10
45.25
20
66.75
11
45.25
21
50.25
0
LINE
8
0
10
63.25
20
-3.25
11
80.75
21
-3.25
0
LINE
8
0
10
80.75
20
-3.25
11
80.75
21
13.25
0
LINE
8
0
10
80.75
20
13.25
11
63.25
21
13.25
0
LINE
8
0
10
63.25
20
13.25
11
63.25
21
-3.25
0
LINE
8
0
10
63.25
20
13.75
11
80.75
21
13.75
0
LINE
8
0
10
80.75
20
13.75
11
80.75
21
30.25
0
LINE
8
0
10
80.75
20
30.25
11
63.25
21
30.25
0
LINE
8
0
10
63.25
20
30.25
11
63.25
21
13.75
0
LINE
8
0
10
63.25
20
30.75
11
80.75
21
30.75
0
LINE
8
0
10
80.75
20
30.75
11
80.75
21
47.25
0
LINE
8
0
10
80.75
20
47.25
11
63.25
21
47.25
0
LINE
8
0
10
63.25
20
47.25
11
63.25
21
30.75
0
LINE
8
0
10
63.25
20
47.75
11
80.75
21
47.75
0
LINE
8
0
10
80.75
20
47.75
11
80.75
21
64.25
0
LINE
8
0
10
80.75
20
64.25
11
63.25
21
64.25
0
LINE
8
0
10
63.25
20
64.25
11
63.25
21
47.75
0
LINE
8
0
10
81.25
20
-5.75
11
98.75
21
-5.75
0
LINE
8
0
10
98.75
20
-5.75
11
98.75
21
10.75
0
LINE
8
0
10
98.75
20
10.75
11
81.25
21
10.75
0
LINE
8
0
10
81.25
20
10.75
11
81.25
21
-5.75
0
LINE
8
0
10
81.25
20
11.25
11
98.75
21
11.25
0
LINE
8
0
10
98.75
20
11.25
11
98.75
21
27.75
0
LINE
8
0
10
98.75
20
27.75
11
81.25
21
27.75
0
LINE
8
0
10
81.25
20
27.75
11
81.25
21
11.25
0
LINE
8
0
10
81.25
20
28.25
11
98.75
21
28.25
0
LINE
8
0
10
98.75
20
28.25
11
98.75
21
44.75
0
LINE
8
0
10
98.75
20
44.75
11
81.25
21
44.75
0
LINE
8
0
10
81.25
20
44.75
11
81.25
21
28.25
0
LINE
8
0
10
81.25
20
45.25
11
98.75
21
45.25
0
LINE
8
0
10
98.75
20
45.25
11
98.75
21
61.75
0
LINE
8
0
10
98.75
20
61.75
11
81.25
21
61.75
0
LINE
8
0
10
81.25
20
61.75
11
81.25
21
45.25
0
LINE
8
0
10
61.9503347
20
-22.8052424
11
79.1844704
21
-25.8440855
0
LINE
8
0
10
79.1844704
20
-25.8440855
11
82.0496653
21
-9.5947576
0
LINE
8
0
10
82.0496653
20
-9.5947576
11
64.8155296
21
-6.5559145
0
LINE
8
0
10
64.8155296
20
-6.5559145
11
61.9503347
21
-22.8052424
0
LINE
8
0
10
80.5946383
20
-26.3573447
11
95.7500829
21
-35.1073447
0
LINE
8
0
10
95.7500829
20
-35.1073447
11
104.0000829
21
-20.8179255
0
LINE
8
0
10
104.0000829
20
-20.8179255
11
88.8446383
21
-12.0679255
0
LINE
8
0
10
88.8446383
20
-12.0679255
11
80.5946383
21
-26.3573447
0
LINE
8
0
10
96.8996624
20
-36.0719564
11
108.1484455
21
-49.4777342
0
LINE
8
0
10
108.1484455
20
-49.4777342
11
120.7881788
21
-38.8717386
0
LINE
8
0
10
120.7881788
20
-38.8717386
11
109.5393957
21
-25.4659608
0
LINE
8
0
10
109.5393957
20
-25.4659608
11
96.8996624
21
-36.0719564
0
LINE
8
0
10
108.8987802
20
-50.7773519
11
114.8841327
21
-67.2219727
0
LINE
8
0
10
114.8841327
20
-67.2219727
11
130.389061
21
-61.5786403
0
LINE
8
0
10
130.389061
20
-61.5786403
11
124.4037085
21
-45.1340195
0
LINE
8
0
10
124.4037085
20
-45.1340195
11
108.8987802
21
-50.7773519
0
LINE
8
0
10
115.1447212
20
-68.6998436
11
115.1447212
21
-86.1998436
0
LINE
8
0
10
115.1447212
20
-86.1998436
11
131.6447212
21
-86.1998436
0
LINE
8
0
10
131.6447212
20
-86.1998436
11
131.6447212
21
-68.6998436
0
LINE
8
0
10
131.6447212
20
-68.6998436
11
115.1447212
21
-68.6998436
0
LINE
8
0
10
114.8841326
20
-87.6777144
11
108.8987801
21
-104.1223352
0
LINE
8
0
10
108.8987801
20
-104.1223352
11
124.4037084
21
-109.7656676
0
LINE
8
0
10
124.4037084
20
-109.7656676
11
130.3890609
21
-93.3210468
0
LINE
8
0
10
130.3890609
20
-93.3210468
11
114.8841326
21
-87.6777144
0
LINE
8
0
10
315.25
20
-8.25
11
332.75
21
-8.25
0
LINE
8
0
10
332.75
20
-8.25
11
332.75
21
8.25
0
LINE
8
0
10
332.75
20
8.25
11
315.25
21
8.25
0
LINE
8
0
10
315.25
20
8.25
11
315.25
21
-8.25
0
LINE
8
0
10
315.25
20
8.75
11
332.75
21
8.75
0
LINE
8
0
10
332.75
20
8.75
11
332.75
21
25.25
0
LINE
8
0
10
332.75
20
25.25
11
315.25
21
25.25
0
LINE
8
0
10
315.25
20
25.25
11
315.25
21
8.75
0
LINE
8
0
10
315.25
20
25.75
11
332.75
21
25.75
0
LINE
8
0
10
332.75
20
25.75
11
332.75
21
42.25
0
LINE
8
0
10
332.75
20
42.25
11
315.25
21
42.25
0
LINE
8
0
10
315.25
20
42.25
11
315.25
21
25.75
0
LINE
8
0
10
315.25
20
42.75
11
332.75
21
42.75
0
LINE
8
0
10
332.75
20
42.75
11
332.75
21
59.25
0
LINE
8
0
10
332.75
20
59.25
11
315.25
21
59.25
0
LINE
8
0
10
315.25
20
59.25
11
315.25
21
42.75
0
LINE
8
0
10
297.25
20
-8.25
11
314.75
21
-8.25
0
LINE
8
0
10
314.75
20
-8.25
11
314.75
21
8.25
0
LINE
8
0
10
314.75
20
8.25
11
297.25
21
8.25
0
LINE
8
0
10
297.25
20
8.25
11
297.25
21
-8.25
0
LINE
8
0
10
297.25
20
8.75
11
314.75
21
8.75
0
LINE
8
0
10
314.75
20
8.75
11
314.75
21
25.25
0
LINE
8
0
10
314.75
20
25.25
11
297.25
21
25.25
0
LINE
8
0
10
297.25
20
25.25
11
297.25
21
8.75
0
LINE
8
0
10
297.25
20
25.75
11
314.75
21
25.75
0
LINE
8
0
10
314.75
20
25.75
11
314.75
21
42.25
0
LINE
8
0
10
314.75
20
42.25
11
297.25
21
42.25
0
LINE
8
0
10
297.25
20
42.25
11
297.25
21
25.75
0
LINE
8
0
10
297.25
20
42.75
11
314.75
21
42.75
0
LINE
8
0
10
314.75
20
42.75
11
314.75
21
59.25
0
LINE
8
0
10
314.75
20
59.25
11
297.25
21
59.25
0
LINE
8
0
10
297.25
20
59.25
11
297.25
21
42.75
0
LINE
8
0
10
279.25
20
-3.25
11
296.75
21
-3.25
0
LINE
8
0
10
296.75
20
-3.25
11
296.75
21
13.25
0
LINE
8
0
10
296.75
20
13.25
11
279.25
21
13.25
0
LINE
8
0
10
279.25
20
13.25
11
279.25
21
-3.25
0
LINE
8
0
10
279.25
20
13.75
11
296.75
21
13.75
0
LINE
8
0
10
296.75
20
13.75
11
296.75
21
30.25
0
LINE
8
0
10
296.75
20
30.25
11
279.25
21
30.25
0
LINE
8
0
10
279.25
20
30.25
11
279.25
21
13.75
0
LINE
8
0
10
279.25
20
30.75
11
296.75
21
30.75
0
LINE
8
0
10
296.75
20
30.75
11
296.75
21
47.25
0
LINE
8
0
10
296.75
20
47.25
11
279.25
21
47.25
0
LINE
8
0
10
279.25
20
47.25
11
279.25
21
30.75
0
LINE
8
0
10
279.25
20
47.75
11
296.75
21
47.75
0
LINE
8
0
10
296.75
20
47.75
11
296.75
21
64.25
0
LINE
8
0
10
296.75
20
64.25
11
279.25
21
64.25
0
LINE
8
0
10
279.25
20
64.25
11
279.25
21
47.75
0
LINE
8
0
10
261.25
20
-0.75
11
278.75
21
-0.75
0
LINE
8
0
10
278.75
20
-0.75
11
278.75
21
15.75
0
LINE
8
0
10
278.75
20
15.75
11
261.25
21
15.75
0
LINE
8
0
10
261.25
20
15.75
11
261.25
21
-0.75
0
LINE
8
0
10
261.25
20
16.25
11
278.75
21
16.25
0
LINE
8
0
10
278.75
20
16.25
11
278.75
21
32.75
0
LINE
8
0
10
278.75
20
32.75
11
261.25
21
32.75
0
LINE
8
0
10
261.25
20
32.75
11
261.25
21
16.25
0
LINE
8
0
10
261.25
20
33.25
11
278.75
21
33.25
0
LINE
8
0
10
278.75
20
33.25
11
278.75
21
49.75
0
LINE
8
0
10
278.75
20
49.75
11
261.25
21
49.75
0
LINE
8
0
10
261.25
20
49.75
11
261.25
21
33.25
0
LINE
8
0
10
261.25
20
50.25
11
278.75
21
50.25
0
LINE
8
0
10
278.75
20
50.25
11
278.75
21
66.75
0
LINE
8
0
10
278.75
20
66.75
11
261.25
21
66.75
0
LINE
8
0
10
261.25
20
66.75
11
261.25
21
50.25
0
LINE
8
0
10
243.25
20
-3.25
11
260.75
21
-3.25
0
LINE
8
0
10
260.75
20
-3.25
11
260.75
21
13.25
0
LINE
8
0
10
260.75
20
13.25
11
243.25
21
13.25
0
LINE
8
0
10
243.25
20
13.25
11
243.25
21
-3.25
0
LINE
8
0
10
243.25
20
13.75
11
260.75
21
13.75
0
LINE
8
0
10
260.75
20
13.75
11
260.75
21
30.25
0
LINE
8
0
10
260.75
20
30.25
11
243.25
21
30.25
0
LINE
8
0
10
243.25
20
30.25
11
243.25
21
13.75
0
LINE
8
0
10
243.25
20
30.75
11
260.75
21
30.75
0
LINE
8
0
10
260.75
20
30.75
11
260.75
21
47.25
0
LINE
8
0
10
260.75
20
47.25
11
243.25
21
47.25
0
LINE
8
0
10
243.25
20
47.25
11
243.25
21
30.75
0
LINE
8
0
10
243.25
20
47.75
11
260.75
21
47.75
0
LINE
8
0
10
260.75
20
47.75
11
260.75
21
64.25
0
LINE
8
0
10
260.75
20
64.25
11
243.25
21
64.25
0
LINE
8
0
10
243.25
20
64.25
11
243.25
21
47.75
0
LINE
8
0
10
225.25
20
-5.75
11
242.75
21
-5.75
0
LINE
8
0
10
242.75
20
-5.75
11
242.75
21
10.75
0
LINE
8
0
10
242.75
20
10.75
11
225.25
21
10.75
0
LINE
8
0
10
225.25
20
10.75
11
225.25
21
-5.75
0
LINE
8
0
10
225.25
20
11.25
11
242.75
21
11.25
0
LINE
8
0
10
242.75
20
11.25
11
242.75
21
27.75
0
LINE
8
0
10
242.75
20
27.75
11
225.25
21
27.75
0
LINE
8
0
10
225.25
20
27.75
11
225.25
21
11.25
0
LINE
8
0
10
225.25
20
28.25
11
242.75
21
28.25
0
LINE
8
0
10
242.75
20
28.25
11
242.75
21
44.75
0
LINE
8
0
10
242.75
20
44.75
11
225.25
21
44.75
0
LINE
8
0
10
225.25
20
44.75
11
225.25
21
28.25
0
LINE
8
0
10
225.25
20
45.25
11
242.75
21
45.25
0
LINE
8
0
10
242.75
20
45.25
11
242.75
21
61.75
0
LINE
8
0
10
242.75
20
61.75
11
225.25
21
61.75
0
LINE
8
0
10
225.25
20
61.75
11
225.25
21
45.25
0
LINE
8
0
10
244.8155296
20
-25.8440855
11
262.0496653
21
-22.8052424
0
LINE
8
0
10
262.0496653
20
-22.8052424
11
259.1844704
21
-6.5559145
0
LINE
8
0
10
259.1844704
20
-6.5559145
11
241.9503347
21
-9.5947576
0
LINE
8
0
10
241.9503347
20
-9.5947576
11
244.8155296
21
-25.8440855
0
LINE
8
0
10
228.2499171
20
-35.1073447
11
243.4053617
21
-26.3573447
0
LINE
8
0
10
243.4053617
20
-26.3573447
11
235.1553617
21
-12.0679255
0
LINE
8
0
10
235.1553617
20
-12.0679255
11
219.9999171
21
-20.8179255
0
LINE
8
0
10
219.9999171
20
-20.8179255
11
228.2499171
21
-35.1073447
0
LINE
8
0
10
215.8515545
20
-49.4777342
11
227.1003376
21
-36.0719564
0
LINE
8
0
10
227.1003376
20
-36.0719564
11
214.4606043
21
-25.4659608
0
LINE
8
0
10
214.4606043
20
-25.4659608
11
203.2118212
21
-38.8717386
0
LINE
8
0
10
203.2118212
20
-38.8717386
11
215.8515545
21
-49.4777342
0
LINE
8
0
10
209.1158673
20
-67.2219727
11
215.1012198
21
-50.7773519
0
LINE
8
0
10
215.1012198
20
-50.7773519
11
199.5962915
21
-45.1340195
0
LINE
8
0
10
199.5962915
20
-45.1340195
11
193.610939
21
-61.5786403
0
LINE
8
0
10
193.610939
20
-61.5786403
11
209.1158673
21
-67.2219727
0
LINE
8
0
10
208.8552788
20
-86.1998436
11
208.8552788
21
-68.6998436
0
LINE
8
0
10
208.8552788
20
-68.6998436
11
192.3552788
21
-68.6998436
0
LINE
8
0
10
192.3552788
20
-68.6998436
11
192.3552788
21
-86.1998436
0
LINE
8
0
10
192.3552788
20
-86.1998436
11
208.8552788
21
-86.1998436
0
LINE
8
0
10
215.1012199
20
-104.1223352
11
209.1158674
21
-87.6777144
0
LINE
8
0
10
209.1158674
20
-87.6777144
11
193.6109391
21
-93.3210468
0
LINE
8
0
10
193.6109391
20
-93.3210468
11
199.5962916
21
-109.7656676
0
LINE
8
0
10
199.5962916
20
-109.7656676
11
215.1012199
21
-104.1223352
0
ENDSEC
0
EOF