0
SECTION
2
HEADER
9
$INSUNITS
70
4
0
ENDSEC
0
SECTION
2
TABLES
0
TABLE
2
LTYPE
0
LTYPE
72
65
70
64
2
CONTINUOUS
3
______
73
0
40
0
0
ENDTAB
0
TABLE
2
LAYER
0
ENDTAB
0
ENDSEC
0
SECTION
2
ENTITIES
0
LINE
8
0
10
91.25
20
-108.25
11
108.75
21
-108.25
0
LINE
8
0
10
108.75
20
-108.25
11
108.75
21
-91.75
0
LINE
8
0
10
108.75
20
-91.75
11
91.25
21
-91.75
0
LINE
8
0
10
91.25
20
-91.75
11
91.25
21
-108.25
0
LINE
8
0
10
91.25
20
-91.25
11
108.75
21
-91.25
0
LINE
8
0
10
108.75
20
-91.25
11
108.75
21
-74.75
0
LINE
8
0
10
108.75
20
-74.75
11
91.25
21
-74.75
0
LINE
8
0
10
91.25
20
-74.75
11
91.25
21
-91.25
0
LINE
8
0
10
91.25
20
-74.25
11
108.75
21
-74.25
0
LINE
8
0
10
108.75
20
-74.25
11
108.75
21
-57.75
0
LINE
8
0
10
108.75
20
-57.75
11
91.25
21
-57.75
0
LINE
8
0
10
91.25
20
-57.75
11
91.25
21
-74.25
0
LINE
8
0
10
91.25
20
-57.25
11
108.75
21
-57.25
0
LINE
8
0
10
108.75
20
-57.25
11
108.75
21
-40.75
0
LINE
8
0
10
108.75
20
-40.75
11
91.25
21
-40.75
0
LINE
8
0
10
91.25
20
-40.75
11
91.25
21
-57.25
0
LINE
8
0
10
109.25
20
-108.25
11
126.75
21
-108.25
0
LINE
8
0
10
126.75
20
-108.25
11
126.75
21
-91.75
0
LINE
8
0
10
126.75
20
-91.75
11
109.25
21
-91.75
0
LINE
8
0
10
109.25
20
-91.75
11
109.25
21
-108.25
0
LINE
8
0
10
109.25
20
-91.25
11
126.75
21
-91.25
0
LINE
8
0
10
126.75
20
-91.25
11
126.75
21
-74.75
0
LINE
8
0
10
126.75
20
-74.75
11
109.25
21
-74.75
0
LINE
8
0
10
109.25
20
-74.75
11
109.25
21
-91.25
0
LINE
8
0
10
109.25
20
-74.25
11
126.75
21
-74.25
0
LINE
8
0
10
126.75
20
-74.25
11
126.75
21
-57.75
0
LINE
8
0
10
126.75
20
-57.75
11
109.25
21
-57.75
0
LINE
8
0
10
109.25
20
-57.75
11
109.25
21
-74.25
0
LINE
8
0
10
109.25
20
-57.25
11
126.75
21
-57.25
0
LINE
8
0
10
126.75
20
-57.25
11
126.75
21
-40.75
0
LINE
8
0
10
126.75
20
-40.75
11
109.25
21
-40.75
0
LINE
8
0
10
109.25
20
-40.75
11
109.25
21
-57.25
0
LINE
8
0
10
127.25
20
-103.25
11
144.75
21
-103.25
0
LINE
8
0
10
144.75
20
-103.25
11
144.75
21
-86.75
0
LINE
8
0
10
144.75
20
-86.75
11
127.25
21
-86.75
0
LINE
8
0
10
127.25
20
-86.75
11
127.25
21
-103.25
0
LINE
8
0
10
127.25
20
-86.25
11
144.75
21
-86.25
0
LINE
8
0
10
144.75
20
-86.25
11
144.75
21
-69.75
0
LINE
8
0
10
144.75
20
-69.75
11
127.25
21
-69.75
0
LINE
8
0
10
127.25
20
-69.75
11
127.25
21
-86.25
0
LINE
8
0
10
127.25
20
-69.25
11
144.75
21
-69.25
0
LINE
8
0
10
144.75
20
-69.25
11
144.75
21
-52.75
0
LINE
8
0
10
144.75
20
-52.75
11
127.25
21
-52.75
0
LINE
8
0
10
127.25
20
-52.75
11
127.25
21
-69.25
0
LINE
8
0
10
127.25
20
-52.25
11
144.75
21
-52.25
0
LINE
8
0
10
144.75
20
-52.25
11
144.75
21
-35.75
0
LINE
8
0
10
144.75
20
-35.75
11
127.25
21
-35.75
0
LINE
8
0
10
127.25
20
-35.75
11
127.25
21
-52.25
0
LINE
8
0
10
145.25
20
-100.75
11
162.75
21
-100.75
0
LINE
8
0
10
162.75
20
-100.75
11
162.75
21
-84.25
0
LINE
8
0
10
162.75
20
-84.25
11
145.25
21
-84.25
0
LINE
8
0
10
145.25
20
-84.25
11
145.25
21
-100.75
0
LINE
8
0
10
145.25
20
-83.75
11
162.75
21
-83.75
0
LINE
8
0
10
162.75
20
-83.75
11
162.75
21
-67.25
0
LINE
8
0
10
162.75
20
-67.25
11
145.25
21
-67.25
0
LINE
8
0
10
145.25
20
-67.25
11
145.25
21
-83.75
0
LINE
8
0
10
145.25
20
-66.75
11
162.75
21
-66.75
0
LINE
8
0
10
162.75
20
-66.75
11
162.75
21
-50.25
0
LINE
8
0
10
162.75
20
-50.25
11
145.25
21
-50.25
0
LINE
8
0
10
145.25
20
-50.25
11
145.25
21
-66.75
0
LINE
8
0
10
145.25
20
-49.75
11
162.75
21
-49.75
0
LINE
8
0
10
162.75
20
-49.75
11
162.75
21
-33.25
0
LINE
8
0
10
162.75
20
-33.25
11
145.25
21
-33.25
0
LINE
8
0
10
145.25
20
-33.25
11
145.25
21
-49.75
0
LINE
8
0
10
163.25
20
-103.25
11
180.75
21
-103.25
0
LINE
8
0
10
180.75
20
-103.25
11
180.75
21
-86.75
0
LINE
8
0
10
180.75
20
-86.75
11
163.25
21
-86.75
0
LINE
8
0
10
163.25
20
-86.75
11
163.25
21
-103.25
0
LINE
8
0
10
163.25
20
-86.25
11
180.75
21
-86.25
0
LINE
8
0
10
180.75
20
-86.25
11
180.75
21
-69.75
0
LINE
8
0
10
180.75
20
-69.75
11
163.25
21
-69.75
0
LINE
8
0
10
163.25
20
-69.75
11
163.25
21
-86.25
0
LINE
8
0
10
163.25
20
-69.25
11
180.75
21
-69.25
0
LINE
8
0
10
180.75
20
-69.25
11
180.75
21
-52.75
0
LINE
8
0
10
180.75
20
-52.75
11
163.25
21
-52.75
0
LINE
8
0
10
163.25
20
-52.75
11
163.25
21
-69.25
0
LINE
8
0
10
163.25
20
-52.25
11
180.75
21
-52.25
0
LINE
8
0
10
180.75
20
-52.25
11
180.75
21
-35.75
0
LINE
8
0
10
180.75
20
-35.75
11
163.25
21
-35.75
0
LINE
8
0
10
163.25
20
-35.75
11
163.25
21
-52.25
0
LINE
8
0
10
181.25
20
-105.75
11
198.75
21
-105.75
0
LINE
8
0
10
198.75
20
-105.75
11
198.75
21
-89.25
0
LINE
8
0
10
198.75
20
-89.25
11
181.25
21
-89.25
0
LINE
8
0
10
181.25
20
-89.25
11
181.25
21
-105.75
0
LINE
8
0
10
181.25
20
-88.75
11
198.75
21
-88.75
0
LINE
8
0
10
198.75
20
-88.75
11
198.75
21
-72.25
0
LINE
8
0
10
198.75
20
-72.25
11
181.25
21
-72.25
0
LINE
8
0
10
181.25
20
-72.25
11
181.25
21
-88.75
0
LINE
8
0
10
181.25
20
-71.75
11
198.75
21
-71.75
0
LINE
8
0
10
198.75
20
-71.75
11
198.75
21
-55.25
0
LINE
8
0
10
198.75
20
-55.25
11
181.25
21
-55.25
0
LINE
8
0
10
181.25
20
-55.25
11
181.25
21
-71.75
0
LINE
8
0
10
181.25
20
-54.75
11
198.75
21
-54.75
0
LINE
8
0
10
198.75
20
-54.75
11
198.75
21
-38.25
0
LINE
8
0
10
198.75
20
-38.25
11
181.25
21
-38.25
0
LINE
8
0
10
181.25
20
-38.25
11
181.25
21
-54.75
0
LINE
8
0
10
161.9503347
20
-122.8052424
11
179.1844704
21
-125.8440855
0
LINE
8
0
10
179.1844704
20
-125.8440855
11
182.0496653
21
-109.5947576
0
LINE
8
0
10
182.0496653
20
-109.5947576
11
164.8155296
21
-106.5559145
0
LINE
8
0
10
164.8155296
20
-106.5559145
11
161.9503347
21
-122.8052424
0
LINE
8
0
10
180.5946383
20
-126.3573447
11
195.7500829
21
-135.1073447
0
LINE
8
0
10
195.7500829
20
-135.1073447
11
204.0000829
21
-120.8179255
0
LINE
8
0
10
204.0000829
20
-120.8179255
11
188.8446383
21
-112.0679255
0
LINE
8
0
10
188.8446383
20
-112.0679255
11
180.5946383
21
-126.3573447
0
LINE
8
0
10
196.8996624
20
-136.0719564
11
208.1484455
21
-149.4777342
0
LINE
8
0
10
208.1484455
20
-149.4777342
11
220.7881788
21
-138.8717386
0
LINE
8
0
10
220.7881788
20
-138.8717386
11
209.5393957
21
-125.4659608
0
LINE
8
0
10
209.5393957
20
-125.4659608
11
196.8996624
21
-136.0719564
0
LINE
8
0
10
208.8987802
20
-150.7773519
11
214.8841327
21
-167.2219727
0
LINE
8
0
10
214.8841327
20
-167.2219727
11
230.389061
21
-161.5786403
0
LINE
8
0
10
230.389061
20
-161.5786403
11
224.4037085
21
-145.1340195
0
LINE
8
0
10
224.4037085
20
-145.1340195
11
208.8987802
21
-150.7773519
0
LINE
8
0
10
215.1447212
20
-168.6998436
11
215.1447212
21
-186.1998436
0
LINE
8
0
10
215.1447212
20
-186.1998436
11
231.6447212
21
-186.1998436
0
LINE
8
0
10
231.6447212
20
-186.1998436
11
231.6447212
21
-168.6998436
0
LINE
8
0
10
231.6447212
20
-168.6998436
11
215.1447212
21
-168.6998436
0
LINE
8
0
10
214.8841326
20
-187.6777144
11
208.8987801
21
-204.1223352
0
LINE
8
0
10
208.8987801
20
-204.1223352
11
224.4037084
21
-209.7656676
0
LINE
8
0
10
224.4037084
20
-209.7656676
11
230.3890609
21
-193.3210468
0
LINE
8
0
10
230.3890609
20
-193.3210468
11
214.8841326
21
-187.6777144
0
LINE
8
0
10
367.25
20
-108.25
11
384.75
21
-108.25
0
LINE
8
0
10
384.75
20
-108.25
11
384.75
21
-91.75
0
LINE
8
0
10
384.75
20
-91.75
11
367.25
21
-91.75
0
LINE
8
0
10
367.25
20
-91.75
11
367.25
21
-108.25
0
LINE
8
0
10
367.25
20
-91.25
11
384.75
21
-91.25
0
LINE
8
0
10
384.75
20
-91.25
11
384.75
21
-74.75
0
LINE
8
0
10
384.75
20
-74.75
11
367.25
21
-74.75
0
LINE
8
0
10
367.25
20
-74.75
11
367.25
21
-91.25
0
LINE
8
0
10
367.25
20
-74.25
11
384.75
21
-74.25
0
LINE
8
0
10
384.75
20
-74.25
11
384.75
21
-57.75
0
LINE
8
0
10
384.75
20
-57.75
11
367.25
21
-57.75
0
LINE
8
0
10
367.25
20
-57.75
11
367.25
21
-74.25
0
LINE
8
0
10
367.25
20
-57.25
11
384.75
21
-57.25
0
LINE
8
0
10
384.75
20
-57.25
11
384.75
21
-40.75
0
LINE
8
0
10
384.75
20
-40.75
11
367.25
21
-40.75
0
LINE
8
0
10
367.25
20
-40.75
11
367.25
21
-57.25
0
LINE
8
0
10
349.25
20
-108.25
11
366.75
21
-108.25
0
LINE
8
0
10
366.75
20
-108.25
11
366.75
21
-91.75
0
LINE
8
0
10
366.75
20
-91.75
11
349.25
21
-91.75
0
LINE
8
0
10
349.25
20
-91.75
11
349.25
21
-108.25
0
LINE
8
0
10
349.25
20
-91.25
11
366.75
21
-91.25
0
LINE
8
0
10
366.75
20
-91.25
11
366.75
21
-74.75
0
LINE
8
0
10
366.75
20
-74.75
11
349.25
21
-74.75
0
LINE
8
0
10
349.25
20
-74.75
11
349.25
21
-91.25
0
LINE
8
0
10
349.25
20
-74.25
11
366.75
21
-74.25
0
LINE
8
0
10
366.75
20
-74.25
11
366.75
21
-57.75
0
LINE
8
0
10
366.75
20
-57.75
11
349.25
21
-57.75
0
LINE
8
0
10
349.25
20
-57.75
11
349.25
21
-74.25
0
LINE
8
0
10
349.25
20
-57.25
11
366.75
21
-57.25
0
LINE
8
0
10
366.75
20
-57.25
11
366.75
21
-40.75
0
LINE
8
0
10
366.75
20
-40.75
11
349.25
21
-40.75
0
LINE
8
0
10
349.25
20
-40.75
11
349.25
21
-57.25
0
LINE
8
0
10
331.25
20
-103.25
11
348.75
21
-103.25
0
LINE
8
0
10
348.75
20
-103.25
11
348.75
21
-86.75
0
LINE
8
0
10
348.75
20
-86.75
11
331.25
21
-86.75
0
LINE
8
0
10
331.25
20
-86.75
11
331.25
21
-103.25
0
LINE
8
0
10
331.25
20
-86.25
11
348.75
21
-86.25
0
LINE
8
0
10
348.75
20
-86.25
11
348.75
21
-69.75
0
LINE
8
0
10
348.75
20
-69.75
11
331.25
21
-69.75
0
LINE
8
0
10
331.25
20
-69.75
11
331.25
21
-86.25
0
LINE
8
0
10
331.25
20
-69.25
11
348.75
21
-69.25
0
LINE
8
0
10
348.75
20
-69.25
11
348.75
21
-52.75
0
LINE
8
0
10
348.75
20
-52.75
11
331.25
21
-52.75
0
LINE
8
0
10
331.25
20
-52.75
11
331.25
21
-69.25
0
LINE
8
0
10
331.25
20
-52.25
11
348.75
21
-52.25
0
LINE
8
0
10
348.75
20
-52.25
11
348.75
21
-35.75
0
LINE
8
0
10
348.75
20
-35.75
11
331.25
21
-35.75
0
LINE
8
0
10
331.25
20
-35.75
11
331.25
21
-52.25
0
LINE
8
0
10
313.25
20
-100.75
11
330.75
21
-100.75
0
LINE
8
0
10
330.75
20
-100.75
11
330.75
21
-84.25
0
LINE
8
0
10
330.75
20
-84.25
11
313.25
21
-84.25
0
LINE
8
0
10
313.25
20
-84.25
11
313.25
21
-100.75
0
LINE
8
0
10
313.25
20
-83.75
11
330.75
21
-83.75
0
LINE
8
0
10
330.75
20
-83.75
11
330.75
21
-67.25
0
LINE
8
0
10
330.75
20
-67.25
11
313.25
21
-67.25
0
LINE
8
0
10
313.25
20
-67.25
11
313.25
21
-83.75
0
LINE
8
0
10
313.25
20
-66.75
11
330.75
21
-66.75
0
LINE
8
0
10
330.75
20
-66.75
11
330.75
21
-50.25
0
LINE
8
0
10
330.75
20
-50.25
11
313.25
21
-50.25
0
LINE
8
0
10
313.25
20
-50.25
11
313.25
21
-66.75
0
LINE
8
0
10
313.25
20
-49.75
11
330.75
21
-49.75
0
LINE
8
0
10
330.75
20
-49.75
11
330.75
21
-33.25
0
LINE
8
0
10
330.75
20
-33.25
11
313.25
21
-33.25
0
LINE
8
0
10
313.25
20
-33.25
11
313.25
21
-49.75
0
LINE
8
0
10
295.25
20
-103.25
11
312.75
21
-103.25
0
LINE
8
0
10
312.75
20
-103.25
11
312.75
21
-86.75
0
LINE
8
0
10
312.75
20
-86.75
11
295.25
21
-86.75
0
LINE
8
0
10
295.25
20
-86.75
11
295.25
21
-103.25
0
LINE
8
0
10
295.25
20
-86.25
11
312.75
21
-86.25
0
LINE
8
0
10
312.75
20
-86.25
11
312.75
21
-69.75
0
LINE
8
0
10
312.75
20
-69.75
11
295.25
21
-69.75
0
LINE
8
0
10
295.25
20
-69.75
11
295.25
21
-86.25
0
LINE
8
0
10
295.25
20
-69.25
11
312.75
21
-69.25
0
LINE
8
0
10
312.75
20
-69.25
11
312.75
21
-52.75
0
LINE
8
0
10
312.75
20
-52.75
11
295.25
21
-52.75
0
LINE
8
0
10
295.25
20
-52.75
11
295.25
21
-69.25
0
LINE
8
0
10
295.25
20
-52.25
11
312.75
21
-52.25
0
LINE
8
0
10
312.75
20
-52.25
11
312.75
21
-35.75
0
LINE
8
0
10
312.75
20
-35.75
11
295.25
21
-35.75
0
LINE
8
0
10
295.25
20
-35.75
11
295.25
21
-52.25
0
LINE
8
0
10
277.25
20
-105.75
11
294.75
21
-105.75
0
LINE
8
0
10
294.75
20
-105.75
11
294.75
21
-89.25
0
LINE
8
0
10
294.75
20
-89.25
11
277.25
21
-89.25
0
LINE
8
0
10
277.25
20
-89.25
11
277.25
21
-105.75
0
LINE
8
0
10
277.25
20
-88.75
11
294.75
21
-88.75
0
LINE
8
0
10
294.75
20
-88.75
11
294.75
21
-72.25
0
LINE
8
0
10
294.75
20
-72.25
11
277.25
21
-72.25
0
LINE
8
0
10
277.25
20
-72.25
11
277.25
21
-88.75
0
LINE
8
0
10
277.25
20
-71.75
11
294.75
21
-71.75
0
LINE
8
0
10
294.75
20
-71.75
11
294.75
21
-55.25
0
LINE
8
0
10
294.75
20
-55.25
11
277.25
21
-55.25
0
LINE
8
0
10
277.25
20
-55.25
11
277.25
21
-71.75
0
LINE
8
0
10
277.25
20
-54.75
11
294.75
21
-54.75
0
LINE
8
0
10
294.75
20
-54.75
11
294.75
21
-38.25
0
LINE
8
0
10
294.75
20
-38.25
11
277.25
21
-38.25
0
LINE
8
0
10
277.25
20
-38.25
11
277.25
21
-54.75
0
LINE
8
0
10
296.8155296
20
-125.8440855
11
314.0496653
21
-122.8052424
0
LINE
8
0
10
314.0496653
20
-122.8052424
11
311.1844704
21
-106.5559145
0
LINE
8
0
10
311.1844704
20
-106.5559145
11
293.9503347
21
-109.5947576
0
LINE
8
0
10
293.9503347
20
-109.5947576
11
296.8155296
21
-125.8440855
0
LINE
8
0
10
280.2499171
20
-135.1073447
11
295.4053617
21
-126.3573447
0
LINE
8
0
10
295.4053617
20
-126.3573447
11
287.1553617
21
-112.0679255
0
LINE
8
0
10
287.1553617
20
-112.0679255
11
271.9999171
21
-120.8179255
0
LINE
8
0
10
271.9999171
20
-120.8179255
11
280.2499171
21
-135.1073447
0
LINE
8
0
10
267.8515545
20
-149.4777342
11
279.1003376
21
-136.0719564
0
LINE
8
0
10
279.1003376
20
-136.0719564
11
266.4606043
21
-125.4659608
0
LINE
8
0
10
266.4606043
20
-125.4659608
11
255.2118212
21
-138.8717386
0
LINE
8
0
10
255.2118212
20
-138.8717386
11
267.8515545
21
-149.4777342
0
LINE
8
0
10
261.1158673
20
-167.2219727
11
267.1012198
21
-150.7773519
0
LINE
8
0
10
267.1012198
20
-150.7773519
11
251.5962915
21
-145.1340195
0
LINE
8
0
10
251.5962915
20
-145.1340195
11
245.610939
21
-161.5786403
0
LINE
8
0
10
245.610939
20
-161.5786403
11
261.1158673
21
-167.2219727
0
LINE
8
0
10
260.8552788
20
-186.1998436
11
260.8552788
21
-168.6998436
0
LINE
8
0
10
260.8552788
20
-168.6998436
11
244.3552788
21
-168.6998436
0
LINE
8
0
10
244.3552788
20
-168.6998436
11
244.3552788
21
-186.1998436
0
LINE
8
0
10
244.3552788
20
-186.1998436
11
260.8552788
21
-186.1998436
0
LINE
8
0
10
267.1012199
20
-204.1223352
11
261.1158674
21
-187.6777144
0
LINE
8
0
10
261.1158674
20
-187.6777144
11
245.6109391
21
-193.3210468
0
LINE
8
0
10
245.6109391
20
-193.3210468
11
251.5962916
21
-209.7656676
0
LINE
8
0
10
251.5962916
20
-209.7656676
11
267.1012199
21
-204.1223352
0
ENDSEC
0
EOF