0
SECTION
2
HEADER
9
$INSUNITS
70
4
0
ENDSEC
0
SECTION
2
TABLES
0
TABLE
2
LTYPE
0
LTYPE
72
65
70
64
2
CONTINUOUS
3
______
73
0
40
0
0
ENDTAB
0
TABLE
2
LAYER
0
ENDTAB
0
ENDSEC
0
SECTION
2
ENTITIES
0
LINE
8
0
10
91.25
20
-108.25
11
108.75
21
-108.25
0
LINE
8
0
10
108.75
20
-108.25
11
108.75
21
-91.75
0
LINE
8
0
10
108.75
20
-91.75
11
91.25
21
-91.75
0
LINE
8
0
10
91.25
20
-91.75
11
91.25
21
-108.25
0
LINE
8
0
10
91.25
20
-91.25
11
108.75
21
-91.25
0
LINE
8
0
10
108.75
20
-91.25
11
108.75
21
-74.75
0
LINE
8
0
10
108.75
20
-74.75
11
91.25
21
-74.75
0
LINE
8
0
10
91.25
20
-74.75
11
91.25
21
-91.25
0
LINE
8
0
10
91.25
20
-74.25
11
108.75
21
-74.25
0
LINE
8
0
10
108.75
20
-74.25
11
108.75
21
-57.75
0
LINE
8
0
10
108.75
20
-57.75
11
91.25
21
-57.75
0
LINE
8
0
10
91.25
20
-57.75
11
91.25
21
-74.25
0
LINE
8
0
10
91.25
20
-57.25
11
108.75
21
-57.25
0
LINE
8
0
10
108.75
20
-57.25
11
108.75
21
-40.75
0
LINE
8
0
10
108.75
20
-40.75
11
91.25
21
-40.75
0
LINE
8
0
10
91.25
20
-40.75
11
91.25
21
-57.25
0
LINE
8
0
10
109.25
20
-108.25
11
126.75
21
-108.25
0
LINE
8
0
10
126.75
20
-108.25
11
126.75
21
-91.75
0
LINE
8
0
10
126.75
20
-91.75
11
109.25
21
-91.75
0
LINE
8
0
10
109.25
20
-91.75
11
109.25
21
-108.25
0
LINE
8
0
10
109.25
20
-91.25
11
126.75
21
-91.25
0
LINE
8
0
10
126.75
20
-91.25
11
126.75
21
-74.75
0
LINE
8
0
10
126.75
20
-74.75
11
109.25
21
-74.75
0
LINE
8
0
10
109.25
20
-74.75
11
109.25
21
-91.25
0
LINE
8
0
10
109.25
20
-74.25
11
126.75
21
-74.25
0
LINE
8
0
10
126.75
20
-74.25
11
126.75
21
-57.75
0
LINE
8
0
10
126.75
20
-57.75
11
109.25
21
-57.75
0
LINE
8
0
10
109.25
20
-57.75
11
109.25
21
-74.25
0
LINE
8
0
10
109.25
20
-57.25
11
126.75
21
-57.25
0
LINE
8
0
10
126.75
20
-57.25
11
126.75
21
-40.75
0
LINE
8
0
10
126.75
20
-40.75
11
109.25
21
-40.75
0
LINE
8
0
10
109.25
20
-40.75
11
109.25
21
-57.25
0
LINE
8
0
10
127.25
20
-103.25
11
144.75
21
-103.25
0
LINE
8
0
10
144.75
20
-103.25
11
144.75
21
-86.75
0
LINE
8
0
10
144.75
20
-86.75
11
127.25
21
-86.75
0
LINE
8
0
10
127.25
20
-86.75
11
127.25
21
-103.25
0
LINE
8
0
10
127.25
20
-86.25
11
144.75
21
-86.25
0
LINE
8
0
10
144.75
20
-86.25
11
144.75
21
-69.75
0
LINE
8
0
10
144.75
20
-69.75
11
127.25
21
-69.75
0
LINE
8
0
10
127.25
20
-69.75
11
127.25
21
-86.25
0
LINE
8
0
10
127.25
20
-69.25
11
144.75
21
-69.25
0
LINE
8
0
10
144.75
20
-69.25
11
144.75
21
-52.75
0
LINE
8
0
10
144.75
20
-52.75
11
127.25
21
-52.75
0
LINE
8
0
10
127.25
20
-52.75
11
127.25
21
-69.25
0
LINE
8
0
10
127.25
20
-52.25
11
144.75
21
-52.25
0
LINE
8
0
10
144.75
20
-52.25
11
144.75
21
-35.75
0
LINE
8
0
10
144.75
20
-35.75
11
127.25
21
-35.75
0
LINE
8
0
10
127.25
20
-35.75
11
127.25
21
-52.25
0
LINE
8
0
10
145.25
20
-100.75
11
162.75
21
-100.75
0
LINE
8
0
10
162.75
20
-100.75
11
162.75
21
-84.25
0
LINE
8
0
10
162.75
20
-84.25
11
145.25
21
-84.25
0
LINE
8
0
10
145.25
20
-84.25
11
145.25
21
-100.75
0
LINE
8
0
10
145.25
20
-83.75
11
162.75
21
-83.75
0
LINE
8
0
10
162.75
20
-83.75
11
162.75
21
-67.25
0
LINE
8
0
10
162.75
20
-67.25
11
145.25
21
-67.25
0
LINE
8
0
10
145.25
20
-67.25
11
145.25
21
-83.75
0
LINE
8
0
10
145.25
20
-66.75
11
162.75
21
-66.75
0
LINE
8
0
10
162.75
20
-66.75
11
162.75
21
-50.25
0
LINE
8
0
10
162.75
20
-50.25
11
145.25
21
-50.25
0
LINE
8
0
10
145.25
20
-50.25
11
145.25
21
-66.75
0
LINE
8
0
10
145.25
20
-49.75
11
162.75
21
-49.75
0
LINE
8
0
10
162.75
20
-49.75
11
162.75
21
-33.25
0
LINE
8
0
10
162.75
20
-33.25
11
145.25
21
-33.25
0
LINE
8
0
10
145.25
20
-33.25
11
145.25
21
-49.75
0
LINE
8
0
10
163.25
20
-103.25
11
180.75
21
-103.25
0
LINE
8
0
10
180.75
20
-103.25
11
180.75
21
-86.75
0
LINE
8
0
10
180.75
20
-86.75
11
163.25
21
-86.75
0
LINE
8
0
10
163.25
20
-86.75
11
163.25
21
-103.25
0
LINE
8
0
10
163.25
20
-86.25
11
180.75
21
-86.25
0
LINE
8
0
10
180.75
20
-86.25
11
180.75
21
-69.75
0
LINE
8
0
10
180.75
20
-69.75
11
163.25
21
-69.75
0
LINE
8
0
10
163.25
20
-69.75
11
163.25
21
-86.25
0
LINE
8
0
10
163.25
20
-69.25
11
180.75
21
-69.25
0
LINE
8
0
10
180.75
20
-69.25
11
180.75
21
-52.75
0
LINE
8
0
10
180.75
20
-52.75
11
163.25
21
-52.75
0
LINE
8
0
10
163.25
20
-52.75
11
163.25
21
-69.25
0
LINE
8
0
10
163.25
20
-52.25
11
180.75
21
-52.25
0
LINE
8
0
10
180.75
20
-52.25
11
180.75
21
-35.75
0
LINE
8
0
10
180.75
20
-35.75
11
163.25
21
-35.75
0
LINE
8
0
10
163.25
20
-35.75
11
163.25
21
-52.25
0
LINE
8
0
10
181.25
20
-105.75
11
198.75
21
-105.75
0
LINE
8
0
10
198.75
20
-105.75
11
198.75
21
-89.25
0
LINE
8
0
10
198.75
20
-89.25
11
181.25
21
-89.25
0
LINE
8
0
10
181.25
20
-89.25
11
181.25
21
-105.75
0
LINE
8
0
10
181.25
20
-88.75
11
198.75
21
-88.75
0
LINE
8
0
10
198.75
20
-88.75
11
198.75
21
-72.25
0
LINE
8
0
10
198.75
20
-72.25
11
181.25
21
-72.25
0
LINE
8
0
10
181.25
20
-72.25
11
181.25
21
-88.75
0
LINE
8
0
10
181.25
20
-71.75
11
198.75
21
-71.75
0
LINE
8
0
10
198.75
20
-71.75
11
198.75
21
-55.25
0
LINE
8
0
10
198.75
20
-55.25
11
181.25
21
-55.25
0
LINE
8
0
10
181.25
20
-55.25
11
181.25
21
-71.75
0
LINE
8
0
10
181.25
20
-54.75
11
198.75
21
-54.75
0
LINE
8
0
10
198.75
20
-54.75
11
198.75
21
-38.25
0
LINE
8
0
10
198.75
20
-38.25
11
181.25
21
-38.25
0
LINE
8
0
10
181.25
20
-38.25
11
181.25
21
-54.75
0
LINE
8
0
10
161.9503347
20
-122.8052424
11
179.1844704
21
-125.8440855
0
LINE
8
0
10
179.1844704
20
-125.8440855
11
182.0496653
21
-109.5947576
0
LINE
8
0
10
182.0496653
20
-109.5947576
11
164.8155296
21
-106.5559145
0
LINE
8
0
10
164.8155296
20
-106.5559145
11
161.9503347
21
-122.8052424
0
LINE
8
0
10
179.748915
20
-126.0495266
11
194.9043596
21
-134.7995266
0
LINE
8
0
10
194.9043596
20
-134.7995266
11
203.1543596
21
-120.5101074
0
LINE
8
0
10
203.1543596
20
-120.5101074
11
187.998915
21
-111.7601074
0
LINE
8
0
10
187.998915
20
-111.7601074
11
179.748915
21
-126.0495266
0
LINE
8
0
10
195.364499
20
-135.1856293
11
206.6132821
21
-148.5914071
0
LINE
8
0
10
206.6132821
20
-148.5914071
11
219.2530154
21
-137.9854115
0
LINE
8
0
10
219.2530154
20
-137.9854115
11
208.0042323
21
-124.5796337
0
LINE
8
0
10
208.0042323
20
-124.5796337
11
195.364499
21
-135.1856293
0
LINE
8
0
10
206.9136169
20
-149.1116022
11
212.8989694
21
-165.556223
0
LINE
8
0
10
212.8989694
20
-165.556223
11
228.4038977
21
-159.9128906
0
LINE
8
0
10
228.4038977
20
-159.9128906
11
222.4185452
21
-143.4682698
0
LINE
8
0
10
222.4185452
20
-143.4682698
11
206.9136169
21
-149.1116022
0
LINE
8
0
10
213.0032745
20
-166.1477668
11
213.0032745
21
-183.6477668
0
LINE
8
0
10
213.0032745
20
-183.6477668
11
229.5032745
21
-183.6477668
0
LINE
8
0
10
229.5032745
20
-183.6477668
11
229.5032745
21
-166.1477668
0
LINE
8
0
10
229.5032745
20
-166.1477668
11
213.0032745
21
-166.1477668
0
LINE
8
0
10
212.8989694
20
-184.2393107
11
206.9136169
21
-200.6839315
0
LINE
8
0
10
206.9136169
20
-200.6839315
11
222.4185452
21
-206.3272639
0
LINE
8
0
10
222.4185452
20
-206.3272639
11
228.4038977
21
-189.8826431
0
LINE
8
0
10
228.4038977
20
-189.8826431
11
212.8989694
21
-184.2393107
0
ENDSEC
0
EOF