0
SECTION
2
HEADER
9
$INSUNITS
70
4
0
ENDSEC
0
SECTION
2
TABLES
0
TABLE
2
LTYPE
0
LTYPE
72
65
70
64
2
CONTINUOUS
3
______
73
0
40
0
0
ENDTAB
0
TABLE
2
LAYER
0
ENDTAB
0
ENDSEC
0
SECTION
2
ENTITIES
0
LINE
8
0
10
89
20
-110.5
11
129
21
-110.5
0
LINE
8
0
10
89
20
-110.5
11
89
21
-38.5
0
LINE
8
0
10
89
20
-38.5
11
125
21
-38.5
0
LINE
8
0
10
129
20
-110.5
11
129
21
-105.5
0
LINE
8
0
10
129
20
-105.5
11
147
21
-105.5
0
LINE
8
0
10
147
20
-105.5
11
147
21
-103
0
LINE
8
0
10
143
20
-33.5
11
125
21
-33.5
0
LINE
8
0
10
125
20
-33.5
11
125
21
-38.5
0
LINE
8
0
10
147
20
-103
11
161
21
-103
0
LINE
8
0
10
165
20
-33.5
11
165
21
-31
0
LINE
8
0
10
165
20
-31
11
143
21
-31
0
LINE
8
0
10
143
20
-31
11
143
21
-33.5
0
LINE
8
0
10
161
20
-105.5
11
162.717006
21
-105.5
0
LINE
8
0
10
171.7843748
20
-105.5
11
179
21
-105.5
0
LINE
8
0
10
161
20
-103
11
161
21
-105.5
0
LINE
8
0
10
183
20
-36
11
183
21
-33.5
0
LINE
8
0
10
183
20
-33.5
11
165
21
-33.5
0
LINE
8
0
10
184.6155739
20
-108
11
201
21
-108
0
LINE
8
0
10
201
20
-108
11
201
21
-36
0
LINE
8
0
10
179
20
-105.5
11
179
21
-106.7723094
0
LINE
8
0
10
201
20
-36
11
183
21
-36
0
LINE
8
0
10
159.3438089
20
-124.6303515
11
178.7033885
21
-128.0439677
0
LINE
8
0
10
183.3157705
20
-115.3715518
11
184.6155739
21
-108
0
LINE
8
0
10
179
20
-106.7723094
11
171.7843748
21
-105.5
0
LINE
8
0
10
162.717006
20
-105.5
11
159.3438089
21
-124.6303515
0
LINE
8
0
10
178.7033885
20
-128.0439677
11
193.6998863
21
-136.7021998
0
LINE
8
0
10
202.3683297
20
-126.371551
11
206.2279167
21
-119.6865503
0
LINE
8
0
10
206.2279167
20
-119.6865503
11
187.1753579
21
-108.6865503
0
LINE
8
0
10
187.1753579
20
-108.6865503
11
183.3157705
21
-115.3715518
0
LINE
8
0
10
193.6998863
20
-136.7021998
11
204.8306949
21
-149.967381
0
LINE
8
0
10
216.5096566
20
-143.2245294
11
222.4228876
21
-138.2627394
0
LINE
8
0
10
222.4228876
20
-138.2627394
11
208.2815601
21
-121.4097616
0
LINE
8
0
10
208.2815601
20
-121.4097616
11
202.3683297
21
-126.371551
0
LINE
8
0
10
204.8306949
20
-149.967381
11
210.7532745
21
-166.2395344
0
LINE
8
0
10
224.0341003
20
-163.8977668
11
231.2877514
21
-161.2576537
0
LINE
8
0
10
231.2877514
20
-161.2576537
11
223.7633082
21
-140.5844161
0
LINE
8
0
10
223.7633082
20
-140.5844161
11
216.5096566
21
-143.2245294
0
LINE
8
0
10
210.7532745
20
-166.2395344
11
210.7532745
21
-183.5559993
0
LINE
8
0
10
224.0341
20
-185.8977668
11
231.7532745
21
-185.8977668
0
LINE
8
0
10
231.7532745
20
-185.8977668
11
231.7532745
21
-163.8977668
0
LINE
8
0
10
231.7532745
20
-163.8977668
11
224.0341003
21
-163.8977668
0
LINE
8
0
10
210.7532745
20
-183.5559993
11
204.0297632
21
-202.0286946
0
LINE
8
0
10
204.0297632
20
-202.0286946
11
223.7633082
21
-209.2111176
0
LINE
8
0
10
223.7633082
20
-209.2111176
11
231.2877514
21
-188.53788
0
LINE
8
0
10
231.2877514
20
-188.53788
11
224.0341
21
-185.8977668
0
ENDSEC
0
EOF