0
SECTION
2
HEADER
9
$INSUNITS
70
4
0
ENDSEC
0
SECTION
2
TABLES
0
TABLE
2
LTYPE
0
LTYPE
72
65
70
64
2
CONTINUOUS
3
______
73
0
40
0
0
ENDTAB
0
TABLE
2
LAYER
0
ENDTAB
0
ENDSEC
0
SECTION
2
ENTITIES
0
LINE
8
0
10
-12
20
-11.5
11
30
21
-11.5
0
LINE
8
0
10
-12
20
-11.5
11
-12
21
62.5
0
LINE
8
0
10
-12
20
62.5
11
24
21
62.5
0
LINE
8
0
10
30
20
-11.5
11
30
21
-6.5
0
LINE
8
0
10
30
20
-6.5
11
48
21
-6.5
0
LINE
8
0
10
48
20
-6.5
11
48
21
-4
0
LINE
8
0
10
42
20
67.5
11
24
21
67.5
0
LINE
8
0
10
24
20
67.5
11
24
21
62.5
0
LINE
8
0
10
48
20
-4
11
60
21
-4
0
LINE
8
0
10
66
20
67.5
11
66
21
70
0
LINE
8
0
10
66
20
70
11
42
21
70
0
LINE
8
0
10
42
20
70
11
42
21
67.5
0
LINE
8
0
10
60
20
-6.5
11
61.5252524
21
-6.5
0
LINE
8
0
10
60
20
-4
11
60
21
-6.5
0
LINE
8
0
10
84
20
65
11
84
21
67.5
0
LINE
8
0
10
84
20
67.5
11
66
21
67.5
0
LINE
8
0
10
85.4546736
20
-9
11
86.8631293
21
-9
0
LINE
8
0
10
90.0308354
20
-9
11
102
21
-9
0
LINE
8
0
10
102
20
-9
11
102
21
65
0
LINE
8
0
10
102
20
65
11
84
21
65
0
LINE
8
0
10
58.1853529
20
-25.441511
11
78.8060921
21
-29.0775037
0
LINE
8
0
10
84.8353861
20
-12.5121542
11
85.4546736
21
-9
0
LINE
8
0
10
61.5252524
20
-6.5
11
58.1853529
21
-25.441511
0
LINE
8
0
10
78.8060921
20
-29.0775037
11
94.2886293
21
-38.0163508
0
LINE
8
0
10
105.6199956
20
-24.5121544
11
108.4396654
21
-19.628343
0
LINE
8
0
10
108.4396654
20
-19.628343
11
90.0308354
21
-9
0
LINE
8
0
10
86.8631293
20
-9
11
84.8353861
21
-12.5121542
0
LINE
8
0
10
94.2886293
20
-38.0163508
11
105.7801897
21
-51.7114592
0
LINE
8
0
10
121.0468986
20
-42.8972206
11
125.366883
21
-39.2723233
0
LINE
8
0
10
125.366883
20
-39.2723233
11
109.9399804
21
-20.8872567
0
LINE
8
0
10
109.9399804
20
-20.8872567
11
105.6199956
21
-24.5121544
0
LINE
8
0
10
105.7801897
20
-51.7114592
11
111.8947212
21
-68.5109963
0
LINE
8
0
10
129.2553818
20
-65.4498436
11
134.5546275
21
-63.5210759
0
LINE
8
0
10
134.5546275
20
-63.5210759
11
126.346144
21
-40.968453
0
LINE
8
0
10
126.346144
20
-40.968453
11
121.0468986
21
-42.8972206
0
LINE
8
0
10
111.8947212
20
-68.5109963
11
111.8947212
21
-86.3886905
0
LINE
8
0
10
129.255382
20
-89.4498436
11
134.8947212
21
-89.4498436
0
LINE
8
0
10
134.8947212
20
-89.4498436
11
134.8947212
21
-65.4498436
0
LINE
8
0
10
134.8947212
20
-65.4498436
11
129.2553818
21
-65.4498436
0
LINE
8
0
10
111.8947212
20
-86.3886905
11
104.7332136
21
-106.0647708
0
LINE
8
0
10
104.7332136
20
-106.0647708
11
126.3461439
21
-113.9312341
0
LINE
8
0
10
126.3461439
20
-113.9312341
11
134.5546274
21
-91.3786112
0
LINE
8
0
10
134.5546274
20
-91.3786112
11
129.255382
21
-89.4498436
0
LINE
8
0
10
294
20
-11.5
11
336
21
-11.5
0
LINE
8
0
10
336
20
-11.5
11
336
21
62.5
0
LINE
8
0
10
300
20
62.5
11
336
21
62.5
0
LINE
8
0
10
294
20
-6.5
11
294
21
-11.5
0
LINE
8
0
10
276
20
-6.5
11
294
21
-6.5
0
LINE
8
0
10
276
20
-4
11
276
21
-6.5
0
LINE
8
0
10
300
20
62.5
11
300
21
67.5
0
LINE
8
0
10
300
20
67.5
11
282
21
67.5
0
LINE
8
0
10
264
20
-4
11
276
21
-4
0
LINE
8
0
10
282
20
67.5
11
282
21
70
0
LINE
8
0
10
282
20
70
11
258
21
70
0
LINE
8
0
10
258
20
70
11
258
21
67.5
0
LINE
8
0
10
262.4747476
20
-6.5
11
264
21
-6.5
0
LINE
8
0
10
264
20
-6.5
11
264
21
-4
0
LINE
8
0
10
258
20
67.5
11
240
21
67.5
0
LINE
8
0
10
240
20
67.5
11
240
21
65
0
LINE
8
0
10
222
20
-9
11
233.9691646
21
-9
0
LINE
8
0
10
237.1368707
20
-9
11
238.5453264
21
-9
0
LINE
8
0
10
222
20
-9
11
222
21
65
0
LINE
8
0
10
240
20
65
11
222
21
65
0
LINE
8
0
10
245.1939079
20
-29.0775037
11
265.8146471
21
-25.441511
0
LINE
8
0
10
265.8146471
20
-25.441511
11
262.4747476
21
-6.5
0
LINE
8
0
10
238.5453264
20
-9
11
239.1646139
21
-12.5121542
0
LINE
8
0
10
229.7113707
20
-38.0163508
11
245.1939079
21
-29.0775037
0
LINE
8
0
10
239.1646139
20
-12.5121542
11
237.1368707
21
-9
0
LINE
8
0
10
233.9691646
20
-9
11
215.5603346
21
-19.628343
0
LINE
8
0
10
215.5603346
20
-19.628343
11
218.3800044
21
-24.5121544
0
LINE
8
0
10
218.2198103
20
-51.7114592
11
229.7113707
21
-38.0163508
0
LINE
8
0
10
218.3800044
20
-24.5121544
11
214.0600196
21
-20.8872567
0
LINE
8
0
10
214.0600196
20
-20.8872567
11
198.633117
21
-39.2723233
0
LINE
8
0
10
198.633117
20
-39.2723233
11
202.9531014
21
-42.8972206
0
LINE
8
0
10
212.1052788
20
-68.5109963
11
218.2198103
21
-51.7114592
0
LINE
8
0
10
202.9531014
20
-42.8972206
11
197.653856
21
-40.968453
0
LINE
8
0
10
197.653856
20
-40.968453
11
189.4453725
21
-63.5210759
0
LINE
8
0
10
189.4453725
20
-63.5210759
11
194.7446182
21
-65.4498436
0
LINE
8
0
10
212.1052788
20
-86.3886905
11
212.1052788
21
-68.5109963
0
LINE
8
0
10
194.7446182
20
-65.4498436
11
189.1052788
21
-65.4498436
0
LINE
8
0
10
189.1052788
20
-65.4498436
11
189.1052788
21
-89.4498436
0
LINE
8
0
10
189.1052788
20
-89.4498436
11
194.744618
21
-89.4498436
0
LINE
8
0
10
219.2667864
20
-106.0647708
11
212.1052788
21
-86.3886905
0
LINE
8
0
10
194.744618
20
-89.4498436
11
189.4453726
21
-91.3786112
0
LINE
8
0
10
189.4453726
20
-91.3786112
11
197.6538561
21
-113.9312341
0
LINE
8
0
10
197.6538561
20
-113.9312341
11
219.2667864
21
-106.0647708
0
ENDSEC
0
EOF