0
SECTION
2
HEADER
9
$INSUNITS
70
4
0
ENDSEC
0
SECTION
2
TABLES
0
TABLE
2
LTYPE
0
LTYPE
72
65
70
64
2
CONTINUOUS
3
______
73
0
40
0
0
ENDTAB
0
TABLE
2
LAYER
0
ENDTAB
0
ENDSEC
0
SECTION
2
ENTITIES
0
LINE
8
0
10
88
20
-111.5
11
130
21
-111.5
0
LINE
8
0
10
88
20
-111.5
11
88
21
-37.5
0
LINE
8
0
10
88
20
-37.5
11
124
21
-37.5
0
LINE
8
0
10
130
20
-111.5
11
130
21
-106.5
0
LINE
8
0
10
130
20
-106.5
11
148
21
-106.5
0
LINE
8
0
10
148
20
-106.5
11
148
21
-104
0
LINE
8
0
10
142
20
-32.5
11
124
21
-32.5
0
LINE
8
0
10
124
20
-32.5
11
124
21
-37.5
0
LINE
8
0
10
148
20
-104
11
160
21
-104
0
LINE
8
0
10
166
20
-32.5
11
166
21
-30
0
LINE
8
0
10
166
20
-30
11
142
21
-30
0
LINE
8
0
10
142
20
-30
11
142
21
-32.5
0
LINE
8
0
10
160
20
-106.5
11
161.5252524
21
-106.5
0
LINE
8
0
10
160
20
-104
11
160
21
-106.5
0
LINE
8
0
10
184
20
-35
11
184
21
-32.5
0
LINE
8
0
10
184
20
-32.5
11
166
21
-32.5
0
LINE
8
0
10
185.4546736
20
-109
11
186.8631293
21
-109
0
LINE
8
0
10
190.0308354
20
-109
11
202
21
-109
0
LINE
8
0
10
202
20
-109
11
202
21
-35
0
LINE
8
0
10
202
20
-35
11
184
21
-35
0
LINE
8
0
10
158.1853529
20
-125.441511
11
178.8060921
21
-129.0775037
0
LINE
8
0
10
184.8353861
20
-112.5121542
11
185.4546736
21
-109
0
LINE
8
0
10
161.5252524
20
-106.5
11
158.1853529
21
-125.441511
0
LINE
8
0
10
178.8060921
20
-129.0775037
11
194.2886293
21
-138.0163508
0
LINE
8
0
10
205.6199956
20
-124.5121544
11
208.4396654
21
-119.628343
0
LINE
8
0
10
208.4396654
20
-119.628343
11
190.0308354
21
-109
0
LINE
8
0
10
186.8631293
20
-109
11
184.8353861
21
-112.5121542
0
LINE
8
0
10
194.2886293
20
-138.0163508
11
205.7801897
21
-151.7114592
0
LINE
8
0
10
221.0468986
20
-142.8972206
11
225.366883
21
-139.2723233
0
LINE
8
0
10
225.366883
20
-139.2723233
11
209.9399804
21
-120.8872567
0
LINE
8
0
10
209.9399804
20
-120.8872567
11
205.6199956
21
-124.5121544
0
LINE
8
0
10
205.7801897
20
-151.7114592
11
211.8947212
21
-168.5109963
0
LINE
8
0
10
229.2553818
20
-165.4498436
11
234.5546275
21
-163.5210759
0
LINE
8
0
10
234.5546275
20
-163.5210759
11
226.346144
21
-140.968453
0
LINE
8
0
10
226.346144
20
-140.968453
11
221.0468986
21
-142.8972206
0
LINE
8
0
10
211.8947212
20
-168.5109963
11
211.8947212
21
-186.3886905
0
LINE
8
0
10
229.255382
20
-189.4498436
11
234.8947212
21
-189.4498436
0
LINE
8
0
10
234.8947212
20
-189.4498436
11
234.8947212
21
-165.4498436
0
LINE
8
0
10
234.8947212
20
-165.4498436
11
229.2553818
21
-165.4498436
0
LINE
8
0
10
211.8947212
20
-186.3886905
11
204.7332136
21
-206.0647708
0
LINE
8
0
10
204.7332136
20
-206.0647708
11
226.3461439
21
-213.9312341
0
LINE
8
0
10
226.3461439
20
-213.9312341
11
234.5546274
21
-191.3786112
0
LINE
8
0
10
234.5546274
20
-191.3786112
11
229.255382
21
-189.4498436
0
LINE
8
0
10
490
20
-111.5
11
532
21
-111.5
0
LINE
8
0
10
532
20
-111.5
11
532
21
-37.5
0
LINE
8
0
10
496
20
-37.5
11
532
21
-37.5
0
LINE
8
0
10
490
20
-106.5
11
490
21
-111.5
0
LINE
8
0
10
472
20
-106.5
11
490
21
-106.5
0
LINE
8
0
10
472
20
-104
11
472
21
-106.5
0
LINE
8
0
10
496
20
-37.5
11
496
21
-32.5
0
LINE
8
0
10
496
20
-32.5
11
478
21
-32.5
0
LINE
8
0
10
460
20
-104
11
472
21
-104
0
LINE
8
0
10
478
20
-32.5
11
478
21
-30
0
LINE
8
0
10
478
20
-30
11
454
21
-30
0
LINE
8
0
10
454
20
-30
11
454
21
-32.5
0
LINE
8
0
10
458.4747476
20
-106.5
11
460
21
-106.5
0
LINE
8
0
10
460
20
-106.5
11
460
21
-104
0
LINE
8
0
10
454
20
-32.5
11
436
21
-32.5
0
LINE
8
0
10
436
20
-32.5
11
436
21
-35
0
LINE
8
0
10
418
20
-109
11
429.9691646
21
-109
0
LINE
8
0
10
433.1368707
20
-109
11
434.5453264
21
-109
0
LINE
8
0
10
418
20
-109
11
418
21
-35
0
LINE
8
0
10
436
20
-35
11
418
21
-35
0
LINE
8
0
10
441.1939079
20
-129.0775037
11
461.8146471
21
-125.441511
0
LINE
8
0
10
461.8146471
20
-125.441511
11
458.4747476
21
-106.5
0
LINE
8
0
10
434.5453264
20
-109
11
435.1646139
21
-112.5121542
0
LINE
8
0
10
425.7113707
20
-138.0163508
11
441.1939079
21
-129.0775037
0
LINE
8
0
10
435.1646139
20
-112.5121542
11
433.1368707
21
-109
0
LINE
8
0
10
429.9691646
20
-109
11
411.5603346
21
-119.628343
0
LINE
8
0
10
411.5603346
20
-119.628343
11
414.3800044
21
-124.5121544
0
LINE
8
0
10
414.2198103
20
-151.7114592
11
425.7113707
21
-138.0163508
0
LINE
8
0
10
414.3800044
20
-124.5121544
11
410.0600196
21
-120.8872567
0
LINE
8
0
10
410.0600196
20
-120.8872567
11
394.633117
21
-139.2723233
0
LINE
8
0
10
394.633117
20
-139.2723233
11
398.9531014
21
-142.8972206
0
LINE
8
0
10
408.1052788
20
-168.5109963
11
414.2198103
21
-151.7114592
0
LINE
8
0
10
398.9531014
20
-142.8972206
11
393.653856
21
-140.968453
0
LINE
8
0
10
393.653856
20
-140.968453
11
385.4453725
21
-163.5210759
0
LINE
8
0
10
385.4453725
20
-163.5210759
11
390.7446182
21
-165.4498436
0
LINE
8
0
10
408.1052788
20
-186.3886905
11
408.1052788
21
-168.5109963
0
LINE
8
0
10
390.7446182
20
-165.4498436
11
385.1052788
21
-165.4498436
0
LINE
8
0
10
385.1052788
20
-165.4498436
11
385.1052788
21
-189.4498436
0
LINE
8
0
10
385.1052788
20
-189.4498436
11
390.744618
21
-189.4498436
0
LINE
8
0
10
415.2667864
20
-206.0647708
11
408.1052788
21
-186.3886905
0
LINE
8
0
10
390.744618
20
-189.4498436
11
385.4453726
21
-191.3786112
0
LINE
8
0
10
385.4453726
20
-191.3786112
11
393.6538561
21
-213.9312341
0
LINE
8
0
10
393.6538561
20
-213.9312341
11
415.2667864
21
-206.0647708
0
ENDSEC
0
EOF