0
SECTION
2
HEADER
9
$INSUNITS
70
4
0
ENDSEC
0
SECTION
2
TABLES
0
TABLE
2
LTYPE
0
LTYPE
72
65
70
64
2
CONTINUOUS
3
______
73
0
40
0
0
ENDTAB
0
TABLE
2
LAYER
0
ENDTAB
0
ENDSEC
0
SECTION
2
ENTITIES
0
LINE
8
0
10
88
20
-111.5
11
130
21
-111.5
0
LINE
8
0
10
88
20
-111.5
11
88
21
-37.5
0
LINE
8
0
10
88
20
-37.5
11
124
21
-37.5
0
LINE
8
0
10
130
20
-111.5
11
130
21
-106.5
0
LINE
8
0
10
130
20
-106.5
11
148
21
-106.5
0
LINE
8
0
10
148
20
-106.5
11
148
21
-104
0
LINE
8
0
10
142
20
-32.5
11
124
21
-32.5
0
LINE
8
0
10
124
20
-32.5
11
124
21
-37.5
0
LINE
8
0
10
148
20
-104
11
160
21
-104
0
LINE
8
0
10
166
20
-32.5
11
166
21
-30
0
LINE
8
0
10
166
20
-30
11
142
21
-30
0
LINE
8
0
10
142
20
-30
11
142
21
-32.5
0
LINE
8
0
10
160
20
-106.5
11
161.5252524
21
-106.5
0
LINE
8
0
10
160
20
-104
11
160
21
-106.5
0
LINE
8
0
10
184
20
-35
11
184
21
-32.5
0
LINE
8
0
10
184
20
-32.5
11
166
21
-32.5
0
LINE
8
0
10
185.4546736
20
-109
11
185.8396871
21
-109
0
LINE
8
0
10
189.7182687
20
-109
11
202
21
-109
0
LINE
8
0
10
202
20
-109
11
202
21
-35
0
LINE
8
0
10
202
20
-35
11
184
21
-35
0
LINE
8
0
10
158.1853529
20
-125.441511
11
178.3560921
21
-128.9981566
0
LINE
8
0
10
185.285386
20
-109.9600776
11
185.4546736
21
-109
0
LINE
8
0
10
161.5252524
20
-106.5
11
158.1853529
21
-125.441511
0
LINE
8
0
10
178.3560921
20
-128.9981566
11
193.0471827
21
-137.4800617
0
LINE
8
0
10
206.0699959
20
-121.9600771
11
207.5939421
21
-119.3205249
0
LINE
8
0
10
207.5939421
20
-119.3205249
11
189.7182687
21
-109
0
LINE
8
0
10
185.8396871
20
-109
11
185.285386
21
-109.9600776
0
LINE
8
0
10
193.0471827
20
-137.4800617
11
203.9513097
21
-150.4750942
0
LINE
8
0
10
221.496898
20
-140.3451442
11
223.8317196
21
-138.3859962
0
LINE
8
0
10
223.8317196
20
-138.3859962
11
208.404817
21
-120.0009296
0
LINE
8
0
10
208.404817
20
-120.0009296
11
206.0699959
21
-121.9600771
0
LINE
8
0
10
203.9513097
20
-150.4750942
11
209.7532745
21
-166.4158615
0
LINE
8
0
10
229.7053822
20
-162.8977668
11
232.5694642
21
-161.8553262
0
LINE
8
0
10
232.5694642
20
-161.8553262
11
224.3609807
21
-139.3027033
0
LINE
8
0
10
224.3609807
20
-139.3027033
11
221.496898
21
-140.3451442
0
LINE
8
0
10
209.7532745
20
-166.4158615
11
209.7532745
21
-183.3796722
0
LINE
8
0
10
229.7053819
20
-186.8977668
11
232.7532745
21
-186.8977668
0
LINE
8
0
10
232.7532745
20
-186.8977668
11
232.7532745
21
-162.8977668
0
LINE
8
0
10
232.7532745
20
-162.8977668
11
229.7053822
21
-162.8977668
0
LINE
8
0
10
209.7532745
20
-183.3796722
11
202.7480504
21
-202.6263671
0
LINE
8
0
10
202.7480504
20
-202.6263671
11
224.3609807
21
-210.4928304
0
LINE
8
0
10
224.3609807
20
-210.4928304
11
232.5694642
21
-187.9402075
0
LINE
8
0
10
232.5694642
20
-187.9402075
11
229.7053819
21
-186.8977668
0
ENDSEC
0
EOF